<?xml version="1.0" encoding="iso-8859-1"?>
<!-- Generator: Adobe Illustrator 19.0.0, SVG Export Plug-In . SVG Version: 6.00 Build 0)  -->
<svg version="1.1" id="Layer_1" xmlns="http://www.w3.org/2000/svg" xmlns:xlink="http://www.w3.org/1999/xlink" x="0px" y="0px"
	 viewBox="0 0 392.792 392.792" style="enable-background:new 0 0 392.792 392.792;" xml:space="preserve">
<path style="fill:#FFFFFF;" d="M335.127,71.564c11.119,0,20.105-9.051,20.105-20.105c0-11.119-9.051-20.105-20.105-20.105
	c-11.119,0-20.105,9.051-20.105,20.105S324.008,71.564,335.127,71.564z"/>
<path style="fill:#FFC10D;" d="M335.127,127.224c-19.652,0-35.62,15.968-35.62,35.62v60.897h71.24v-60.897
	C370.747,143.192,354.78,127.224,335.127,127.224z"/>
<rect x="323.62" y="245.527" style="fill:#56ACE0;" width="22.949" height="75.313"/>
<path style="fill:#FFC10D;" d="M196.267,73.956c14.352,0,26.053-11.636,26.053-26.053S210.683,21.85,196.267,21.85
	c-14.416,0-26.053,11.636-26.053,26.053S181.915,73.956,196.267,73.956z"/>
<path style="fill:#56ACE0;" d="M196.267,136.081c-24.501,0-44.541,19.911-44.541,44.541v74.537h88.954v-74.602
	C240.808,156.057,220.768,136.081,196.267,136.081z"/>
<g>
	<rect x="180.558" y="276.945" style="fill:#FFFFFF;" width="31.418" height="93.867"/>
	<path style="fill:#FFFFFF;" d="M57.406,71.564c11.119,0,20.105-9.051,20.105-20.105c0-11.119-9.05-20.105-20.105-20.105
		c-11.119,0-20.105,9.051-20.105,20.105S46.352,71.564,57.406,71.564z"/>
</g>
<path style="fill:#FFC10D;" d="M57.406,127.224c-19.653,0-35.62,15.968-35.62,35.62v60.897h71.24v-60.897
	C93.026,143.192,77.059,127.224,57.406,127.224z"/>
<rect x="45.964" y="245.527" style="fill:#56ACE0;" width="22.949" height="75.313"/>
<g>
	<path style="fill:#194F82;" d="M335.127,93.349c23.079,0,41.956-18.747,41.956-41.891S358.335,9.503,335.127,9.503
		c-23.079,0-41.891,18.747-41.891,41.956C293.172,74.473,312.048,93.349,335.127,93.349z M335.127,31.289
		c11.119,0,20.105,9.051,20.105,20.105c0,11.119-9.051,20.105-20.105,20.105c-11.119,0-20.105-9.051-20.105-20.105
		S324.008,31.289,335.127,31.289z"/>
	<path style="fill:#194F82;" d="M335.127,105.374c-31.677,0-57.406,25.729-57.406,57.406v71.758c0,6.012,4.848,10.925,10.925,10.925
		h13.317v86.238c0,6.012,4.848,10.925,10.925,10.925h44.735c6.012,0,10.925-4.848,10.925-10.925v-86.174h13.317
		c6.012,0,10.925-4.848,10.925-10.925v-71.758C392.533,131.168,366.804,105.374,335.127,105.374z M370.747,223.677h-71.24V162.78
		c0-19.653,15.968-35.62,35.62-35.62c19.653,0,35.62,15.968,35.62,35.62L370.747,223.677L370.747,223.677z M346.57,320.905H323.62
		v-75.378h22.949V320.905z"/>
	<path style="fill:#194F82;" d="M196.267,95.741c26.376,0,47.838-21.463,47.838-47.838S222.642,0.065,196.267,0.065
		s-47.838,21.463-47.838,47.838S169.891,95.741,196.267,95.741z M196.267,21.85c14.352,0,26.053,11.636,26.053,26.053
		s-11.636,26.053-26.053,26.053c-14.416,0-26.053-11.636-26.053-26.053S181.915,21.85,196.267,21.85z"/>
	<path style="fill:#194F82;" d="M196.267,114.295c-36.525,0-66.327,29.737-66.327,66.327v85.463c0,6.012,4.848,10.925,10.925,10.925
		h17.842v104.792c0,6.012,4.848,10.925,10.925,10.925h53.269c6.012,0,10.925-4.848,10.925-10.925V276.945h17.842
		c6.012,0,10.925-4.849,10.925-10.925v-85.463C262.594,144.032,232.792,114.295,196.267,114.295z M240.808,255.16h-89.083v-74.602
		c0-24.501,19.911-44.541,44.541-44.541c24.501,0,44.541,19.911,44.541,44.541V255.16z M211.976,370.812h-31.418v-93.867h31.418
		V370.812z"/>
	<path style="fill:#194F82;" d="M57.406,93.349c23.079,0,41.956-18.747,41.956-41.891S80.614,9.503,57.406,9.503
		c-23.079,0-41.891,18.747-41.891,41.956C15.515,74.473,34.327,93.349,57.406,93.349z M57.406,31.289
		c11.119,0,20.105,9.051,20.105,20.105c0,11.119-9.05,20.105-20.105,20.105c-11.119,0-20.105-9.051-20.105-20.105
		S46.352,31.289,57.406,31.289z"/>
	<path style="fill:#194F82;" d="M57.406,105.374C25.729,105.374,0,131.103,0,162.78v71.758c0,6.012,4.848,10.925,10.925,10.925
		h13.317v86.238c0,6.012,4.848,10.925,10.925,10.925h44.735c6.012,0,10.925-4.848,10.925-10.925v-86.174h13.317
		c6.012,0,10.925-4.848,10.925-10.925v-71.758C114.812,131.168,89.083,105.374,57.406,105.374z M93.026,223.677h-71.24V162.78
		c0-19.653,15.968-35.62,35.62-35.62s35.62,15.968,35.62,35.62C93.026,162.78,93.026,223.677,93.026,223.677z M68.848,320.905
		H45.964v-75.378h22.949v75.313h-0.065V320.905z"/>
</g>
<g>
</g>
<g>
</g>
<g>
</g>
<g>
</g>
<g>
</g>
<g>
</g>
<g>
</g>
<g>
</g>
<g>
</g>
<g>
</g>
<g>
</g>
<g>
</g>
<g>
</g>
<g>
</g>
<g>
</g>
</svg>
