<?xml version="1.0" encoding="iso-8859-1"?>
<!-- Generator: Adobe Illustrator 19.0.0, SVG Export Plug-In . SVG Version: 6.00 Build 0)  -->
<svg version="1.1" id="Layer_1" xmlns="http://www.w3.org/2000/svg" xmlns:xlink="http://www.w3.org/1999/xlink" x="0px" y="0px"
	 viewBox="0 0 507.6 507.6" style="enable-background:new 0 0 507.6 507.6;" xml:space="preserve">
<path style="fill:#54B265;" d="M217.6,7.6c-8.8,0-16,7.2-16,16v8.8c-64,5.2-111.2,57.2-111.2,120.4c0,63.2,47.2,115.6,111.2,120.4
	v180.4h-80c-8.8,0-16,7.2-16,16s7.2,16,16,16h80v6c0,8.8,7.2,16,16,16s16-7.2,16-16v-6h44v6c0,8.8,7.2,16,16,16s16-7.2,16-16v-8.4
	c56-4.8,111.6-56.8,111.6-120.4s-55.6-115.6-111.6-120.4V61.6h78c8.8,0,16-7.2,16-16s-7.2-16-16-16h-78v-6c0-8.8-7.2-16-16-16
	s-16,7.2-16,16v6h-44v-6C233.6,14.8,226.4,7.6,217.6,7.6z M201.6,241.2c-48-4.8-79.2-42.8-79.2-88.8s31.2-83.6,79.2-88.8V241.2z
	 M309.6,274c40,4.8,79.6,42.8,79.6,88.8s-39.6,84-79.6,88.8V274z M277.6,453.6h-44v-180h44V453.6z M277.6,61.6v180h-44v-180H277.6z"
	/>
<path d="M291.6,507.6c-9.6,0-18-6.8-19.6-16h-36.8c-2,9.2-10,16-19.6,16s-18-6.8-19.6-16h-70.4c-10.8,0-20-8.8-20-20s8.8-20,20-20
	h70V272.8C132,266,84.4,213.2,84.4,148.8S132,31.6,195.6,24.8V20c0-10.8,8.8-20,20-20s20,8.8,20,20v8h36v-8c0-10.8,8.8-20,20-20
	s20,8.8,20,20v8h80c10.8,0,20,8.8,20,20s-8.8,20-20,20h-80v166.8c54.4,6.8,111.6,57.2,111.6,124c0,67.2-56.8,117.6-111.6,124v4.8
	C311.6,498.8,302.8,507.6,291.6,507.6z M231.6,483.6h44c2.4,0,4,1.6,4,4c0,6.8,5.2,12,12,12s12-5.2,12-12v-8.4c0-2,1.6-4,3.6-4
	c51.2-4.4,108-53.2,108-116.4c0-63.2-56.8-112-108-116.4c-2,0-3.6-2-3.6-4V64c0-2.4,1.6-4,4-4h84c6.4,0,12-5.2,12-12s-5.2-12-12-12
	h-84c-2.4,0-4-1.6-4-4V20c0-6.4-5.2-12-12-12s-12,5.2-12,12v12c0,2.4-1.6,4-4,4h-44c-2.4,0-4-1.6-4-4V20c0-6.4-5.2-12-12-12
	s-12,5.2-12,12v8.8c0,2-1.6,4-3.6,4C138.8,37.6,92.8,87.6,92.8,149.2s46,111.6,107.2,116.4c2,0,3.6,2,3.6,4V456c0,2.4-1.6,4-4,4h-74
	c-6.4,0-12,5.2-12,12s5.2,12,12,12h74c2.4,0,4,1.6,4,4c0,6.8,5.2,12,12,12s12-5.2,12-12C227.6,485.6,229.2,483.6,231.6,483.6z
	 M275.6,459.6h-44c-2.4,0-4-1.6-4-4v-180c0-2.4,1.6-4,4-4h44c2.4,0,4,1.6,4,4v180C279.6,458,278,459.6,275.6,459.6z M235.6,451.6h36
	v-172h-36V451.6z M307.6,451.2c-0.8,0-2-0.4-2.8-1.2c-0.8-0.8-1.2-2-1.2-2.8V270c0-1.2,0.4-2.4,1.2-2.8c0.8-0.8,2-1.2,3.2-0.8
	c40.4,4.8,83.2,43.2,83.2,92.8c0,49.6-43.2,88-83.2,92.8C308,451.2,307.6,451.2,307.6,451.2z M311.6,274.8v168
	c35.6-6.4,71.6-40.4,71.6-84S347.2,281.2,311.6,274.8z M275.6,247.6h-44c-2.4,0-4-1.6-4-4v-180c0-2.4,1.6-4,4-4h44c2.4,0,4,1.6,4,4
	v180C279.6,246,278,247.6,275.6,247.6z M235.6,239.6h36v-172h-36V239.6z M199.6,241.2h-0.4c-48.8-5.2-82.8-43.2-82.8-92.8
	c0-49.6,34-87.6,82.8-92.4c1.2,0,2.4,0.4,3.2,1.2s1.2,2,1.2,2.8v177.2c0,1.2-0.4,2.4-1.2,2.8C201.6,240.8,200.4,241.2,199.6,241.2z
	 M195.6,64.4c-42.4,6.4-71.2,40.4-71.2,84s29.2,77.6,71.2,84V64.4z"/>
<g>
</g>
<g>
</g>
<g>
</g>
<g>
</g>
<g>
</g>
<g>
</g>
<g>
</g>
<g>
</g>
<g>
</g>
<g>
</g>
<g>
</g>
<g>
</g>
<g>
</g>
<g>
</g>
<g>
</g>
</svg>
